<?xml version="1.0" standalone="no"?><svg xmlns:xlink="http://www.w3.org/1999/xlink" xmlns="http://www.w3.org/2000/svg" viewBox="0 0 1000 600" preserveAspectRatio="xMaxYMax slice"><g transform="scale(0.8968609865470852)"><rect x="0" y="0" width="1189.3333333333333" height="669" fill="#ffffff"/><path d="M 223 74.33 A 74.33 74.33 0 0 1  297.33 0 L 223 74.33 A 74.33 74.33 0 0 0 297.33 0" fill="#ff8ca7"/><path d="M 371.67 0 A 74.33 74.33 0 0 1  446 74.33 L 371.67 0 A 74.33 74.33 0 0 0 446 74.33" fill="#efefef"/><path d="M 743.33 0 A 74.33 74.33 0 0 1  817.6600000000001 74.33 L 743.33 0 A 74.33 74.33 0 0 0 817.6600000000001 74.33" fill="#cdcdcd"/><path d="M 892 74.33 A 74.33 74.33 0 0 1  966.33 0 L 892 74.33 A 74.33 74.33 0 0 0 966.33 0" fill="#ff6488"/><path d="M 1040.67 74.33 A 74.33 74.33 0 0 1  1115 0 L 1040.67 74.33 A 74.33 74.33 0 0 0 1115 0" fill="#202020"/><rect x="1115" y="0" width="74.33333333333333" height="74.33333333333333" fill="#ffffff"/><path d="M 1152.17 0 A 37.17 37.17 0 0 1  1189.3400000000001 37.17 L 1152.17 0 A 37.17 37.17 0 0 0 1189.3400000000001 37.17" fill="#ff0b44"/><rect x="0" y="74.33333333333333" width="74.33333333333333" height="74.33333333333333" fill="#ffffff"/><path d="M 74.33 74.33 A 74.33 74.33 0 0 1  148.66 148.66 L 74.33 74.33 A 74.33 74.33 0 0 0 148.66 148.66" fill="#ffabbf"/><path d="M 223 74.33 A 74.33 74.33 0 0 1  297.33 148.66 L 223 74.33 A 74.33 74.33 0 0 0 297.33 148.66" fill="#0e0e0e"/><path d="M 446 74.33 A 74.33 74.33 0 0 1  520.33 148.66 L 446 74.33 A 74.33 74.33 0 0 0 520.33 148.66" fill="#dbdbdb"/><rect x="520.3333333333333" y="74.33333333333333" width="74.33333333333333" height="74.33333333333333" fill="#ffffff"/><path d="M 520.33 111.5 A 37.17 37.17 0 0 1  557.5 74.33 L 520.33 111.5 A 37.17 37.17 0 0 0 557.5 74.33" fill="#ff3765"/><path d="M 557.5 148.67000000000002 A 37.17 37.17 0 0 1  594.67 111.5 L 557.5 148.67000000000002 A 37.17 37.17 0 0 0 594.67 111.5" fill="#ffe7ed"/><rect x="148.66666666666666" y="148.66666666666666" width="74.33333333333333" height="74.33333333333333" fill="#ffffff"/><path d="M 148.67 185.83 A 37.17 37.17 0 0 1  185.83999999999997 223 L 148.67 185.83 A 37.17 37.17 0 0 0 185.83999999999997 223" fill="#ff809e"/><path d="M 185.83 223 A 37.17 37.17 0 0 1  223 185.83 L 185.83 223 A 37.17 37.17 0 0 0 223 185.83" fill="#ff7f9d"/><rect x="669" y="148.66666666666666" width="74.33333333333333" height="74.33333333333333" fill="#ffffff"/><path d="M 706.17 148.67 A 37.17 37.17 0 0 1  743.3399999999999 185.83999999999997 L 706.17 148.67 A 37.17 37.17 0 0 0 743.3399999999999 185.83999999999997" fill="#ffdae2"/><path d="M 706.17 223 A 37.17 37.17 0 0 1  743.3399999999999 185.83 L 706.17 223 A 37.17 37.17 0 0 0 743.3399999999999 185.83" fill="#ff3a68"/><rect x="743.3333333333333" y="148.66666666666666" width="74.33333333333333" height="74.33333333333333" fill="#ffffff"/><path d="M 780.5 185.83999999999997 A 37.17 37.17 0 0 1  817.67 148.67 L 780.5 185.83999999999997 A 37.17 37.17 0 0 0 817.67 148.67" fill="#fff7f9"/><rect x="1115" y="148.66666666666666" width="74.33333333333333" height="74.33333333333333" fill="#ffffff"/><path d="M 1115 185.83 A 37.17 37.17 0 0 1  1152.17 223 L 1115 185.83 A 37.17 37.17 0 0 0 1152.17 223" fill="#707070"/><path d="M 223 223 A 74.33 74.33 0 0 1  297.33 297.33 L 223 223 A 74.33 74.33 0 0 0 297.33 297.33" fill="#474747"/><rect x="446" y="223" width="74.33333333333333" height="74.33333333333333" fill="#ffffff"/><path d="M 446 260.17 A 37.17 37.17 0 0 1  483.17 297.34000000000003 L 446 260.17 A 37.17 37.17 0 0 0 483.17 297.34000000000003" fill="#ffbaca"/><path d="M 483.17 260.17 A 37.17 37.17 0 0 1  520.34 297.34000000000003 L 483.17 260.17 A 37.17 37.17 0 0 0 520.34 297.34000000000003" fill="#3d3d3d"/><path d="M 743.33 297.33 A 74.33 74.33 0 0 1  817.6600000000001 223 L 743.33 297.33 A 74.33 74.33 0 0 0 817.6600000000001 223" fill="#ffb8c9"/><path d="M 1040.67 223 A 74.33 74.33 0 0 1  1115 297.33 L 1040.67 223 A 74.33 74.33 0 0 0 1115 297.33" fill="#bebebe"/><rect x="223" y="297.3333333333333" width="74.33333333333333" height="74.33333333333333" fill="#ffffff"/><path d="M 223 334.5 A 37.17 37.17 0 0 1  260.17 371.67 L 223 334.5 A 37.17 37.17 0 0 0 260.17 371.67" fill="#5a5a5a"/><path d="M 260.17 371.67 A 37.17 37.17 0 0 1  297.34000000000003 334.5 L 260.17 371.67 A 37.17 37.17 0 0 0 297.34000000000003 334.5" fill="#909090"/><path d="M 520.33 297.33 A 74.33 74.33 0 0 1  594.6600000000001 371.65999999999997 L 520.33 297.33 A 74.33 74.33 0 0 0 594.6600000000001 371.65999999999997" fill="#b2b2b2"/><rect x="594.6666666666666" y="297.3333333333333" width="74.33333333333333" height="74.33333333333333" fill="#ffffff"/><path d="M 631.83 371.67 A 37.17 37.17 0 0 1  669 334.5 L 631.83 371.67 A 37.17 37.17 0 0 0 669 334.5" fill="#cfcfcf"/><rect x="892" y="297.3333333333333" width="74.33333333333333" height="74.33333333333333" fill="#ffffff"/><path d="M 892 334.5 A 37.17 37.17 0 0 1  929.17 297.33 L 892 334.5 A 37.17 37.17 0 0 0 929.17 297.33" fill="#646464"/><path d="M 74.33 446 A 74.33 74.33 0 0 1  148.66 371.67 L 74.33 446 A 74.33 74.33 0 0 0 148.66 371.67" fill="#3d3d3d"/><path d="M 148.67 371.67 A 74.33 74.33 0 0 1  223 446 L 148.67 371.67 A 74.33 74.33 0 0 0 223 446" fill="#ffe8ee"/><rect x="594.6666666666666" y="371.66666666666663" width="74.33333333333333" height="74.33333333333333" fill="#ffffff"/><path d="M 817.67 446 A 74.33 74.33 0 0 1  892 371.67 L 817.67 446 A 74.33 74.33 0 0 0 892 371.67" fill="#545454"/><rect x="1115" y="371.66666666666663" width="74.33333333333333" height="74.33333333333333" fill="#ffffff"/><path d="M 1152.17 371.67 A 37.17 37.17 0 0 1  1189.3400000000001 408.84000000000003 L 1152.17 371.67 A 37.17 37.17 0 0 0 1189.3400000000001 408.84000000000003" fill="#040404"/><path d="M 1115 408.83 A 37.17 37.17 0 0 1  1152.17 446 L 1115 408.83 A 37.17 37.17 0 0 0 1152.17 446" fill="#ff3e6b"/><path d="M 223 520.33 A 74.33 74.33 0 0 1  297.33 446 L 223 520.33 A 74.33 74.33 0 0 0 297.33 446" fill="#ffb0c2"/><rect x="743.3333333333333" y="446" width="74.33333333333333" height="74.33333333333333" fill="#ffffff"/><rect x="817.6666666666666" y="446" width="74.33333333333333" height="74.33333333333333" fill="#ffffff"/><path d="M 817.67 483.17 A 37.17 37.17 0 0 1  854.8399999999999 446 L 817.67 483.17 A 37.17 37.17 0 0 0 854.8399999999999 446" fill="#ffcdd9"/><path d="M 854.83 483.17 A 37.17 37.17 0 0 1  892 446 L 854.83 483.17 A 37.17 37.17 0 0 0 892 446" fill="#292929"/><path d="M 854.83 483.17 A 37.17 37.17 0 0 1  892 520.34 L 854.83 483.17 A 37.17 37.17 0 0 0 892 520.34" fill="#2c2c2c"/><rect x="74.33333333333333" y="520.3333333333333" width="74.33333333333333" height="74.33333333333333" fill="#ffffff"/><path d="M 74.33 520.33 A 37.17 37.17 0 0 1  111.5 557.5 L 74.33 520.33 A 37.17 37.17 0 0 0 111.5 557.5" fill="#ff3b68"/><path d="M 74.33 557.5 A 37.17 37.17 0 0 1  111.5 594.67 L 74.33 557.5 A 37.17 37.17 0 0 0 111.5 594.67" fill="#181818"/><path d="M 111.5 594.67 A 37.17 37.17 0 0 1  148.67000000000002 557.5 L 111.5 594.67 A 37.17 37.17 0 0 0 148.67000000000002 557.5" fill="#ff819e"/><rect x="594.6666666666666" y="520.3333333333333" width="74.33333333333333" height="74.33333333333333" fill="#ffffff"/><path d="M 892 594.6600000000001 A 74.33 74.33 0 0 1  966.33 520.33 L 892 594.6600000000001 A 74.33 74.33 0 0 0 966.33 520.33" fill="#ff3d6a"/><rect x="966.3333333333333" y="520.3333333333333" width="74.33333333333333" height="74.33333333333333" fill="#ffffff"/><path d="M 1003.5 520.33 A 37.17 37.17 0 0 1  1040.67 557.5 L 1003.5 520.33 A 37.17 37.17 0 0 0 1040.67 557.5" fill="#ffe7ed"/><path d="M 1040.67 520.33 A 74.33 74.33 0 0 1  1115 594.6600000000001 L 1040.67 520.33 A 74.33 74.33 0 0 0 1115 594.6600000000001" fill="#ff4d76"/><path d="M 148.67 669 A 74.33 74.33 0 0 1  223 594.67 L 148.67 669 A 74.33 74.33 0 0 0 223 594.67" fill="#ffcad6"/><path d="M 297.33 669 A 74.33 74.33 0 0 1  371.65999999999997 594.67 L 297.33 669 A 74.33 74.33 0 0 0 371.65999999999997 594.67" fill="#b6b6b6"/><rect x="966.3333333333333" y="594.6666666666666" width="74.33333333333333" height="74.33333333333333" fill="#ffffff"/><path d="M 1003.5 594.67 A 37.17 37.17 0 0 1  1040.67 631.8399999999999 L 1003.5 594.67 A 37.17 37.17 0 0 0 1040.67 631.8399999999999" fill="#7a7a7a"/><path d="M 966.33 631.83 A 37.17 37.17 0 0 1  1003.5 669 L 966.33 631.83 A 37.17 37.17 0 0 0 1003.5 669" fill="#b5b5b5"/></g></svg>